<?xml version="1.0" encoding="utf-8"?>
<!-- Generator: Adobe Illustrator 23.0.1, SVG Export Plug-In . SVG Version: 6.00 Build 0)  -->
<svg version="1.1" id="Layer_1" xmlns="http://www.w3.org/2000/svg" xmlns:xlink="http://www.w3.org/1999/xlink" x="0px" y="0px"
	 viewBox="0 0 512 487" style="enable-background:new 0 0 512 487;" xml:space="preserve">
<style type="text/css">
	.st0{fill:#75AAEA;}
</style>
<path class="st0" d="M512,243c0,0.3,0,0.7,0,1c-0.4,0.2-0.9,0.3-1.2,0.7c-18.4,20.4-36.9,40.8-55.2,61.3c-1.1,1.3-1.6,3.6-1.4,5.4
	c1.7,16.9,3.5,33.8,5.3,50.7c1.1,10.5,2.2,21.1,3.3,31.7c-2.2,0.5-4,1-5.8,1.3c-25.1,5.3-50.1,10.6-75.2,16c-1.9,0.4-4.1,1.7-5,3.3
	c-14,24.1-27.9,48.4-41.8,72.6c-0.3,0-0.7,0-1,0c-0.7-0.6-1.4-1.4-2.2-1.7c-24.2-10.9-48.5-21.8-72.8-32.4c-1.9-0.8-4.9-0.5-6.9,0.3
	c-18.9,8.2-37.7,16.6-56.4,25.1c-6,2.7-11.8,5.8-17.7,8.7c-0.3,0-0.7,0-1,0c-13.9-24.2-27.8-48.5-41.8-72.6c-0.9-1.6-3.2-2.9-5-3.3
	c-15.9-3.5-31.9-6.8-47.8-10.2c-11-2.3-22-4.7-33.2-7.1c2.8-26.7,5.5-52.8,8.4-78.9c0.5-4.6,0-8.1-3.4-11.7
	c-11-11.6-21.4-23.7-32.2-35.5c-7.2-8-14.7-15.8-22-23.6c0-0.3,0-0.7,0-1c0.5-0.3,1.2-0.6,1.6-1c18.3-20.3,36.6-40.5,54.8-60.9
	c1.2-1.3,1.6-3.9,1.4-5.9c-1.7-17.2-3.7-34.4-5.5-51.6c-1.1-10-2-20.1-3-30.1c1.9-0.5,3.4-1,4.8-1.3c25.4-5.4,50.8-10.7,76.1-16.2
	c1.8-0.4,4.1-1.8,5-3.3c14-24.1,27.9-48.4,41.8-72.6c0.3,0,0.7,0,1,0c0.7,0.6,1.4,1.4,2.2,1.7c24.2,10.9,48.5,21.8,72.8,32.4
	c1.9,0.8,4.9,0.5,6.9-0.3c18.9-8.2,37.7-16.6,56.4-25.1c6-2.7,11.8-5.8,17.7-8.7c0.3,0,0.7,0,1,0c13.9,24.2,27.7,48.5,41.8,72.6
	c0.9,1.6,3.1,2.9,5,3.3c15.6,3.5,31.2,6.7,46.8,10.1c11.3,2.4,22.7,4.8,33.8,7.2c0.2,0.9,0.3,1.2,0.3,1.6c-2.8,26.3-5.6,52.6-8.5,79
	c-0.4,3.7,0.2,6.5,2.9,9.4c10.8,11.6,21.2,23.5,31.8,35.2C496.5,226.6,504.3,234.8,512,243z M167.3,222
	c-6.9,6.9-13.7,13.7-20.2,20.2c29.1,29.1,58.5,58.5,88.2,88.2c42.3-47.4,84.7-95,127.4-142.8c-7.6-6.8-14.8-13.2-22.1-19.7
	c-35.8,40.1-71.4,80-107.4,120.3C210.9,265.8,189,243.8,167.3,222z"/>
</svg>
